<?xml version="1.0" encoding="UTF-8" standalone="no"?>
<!-- Created with Inkscape (http://www.inkscape.org/) -->

<svg
   width="77.244896mm"
   height="100.97136mm"
   viewBox="0 0 77.244896 100.97136"
   version="1.1"
   id="svg1"
   xml:space="preserve"
   xmlns:inkscape="http://www.inkscape.org/namespaces/inkscape"
   xmlns:sodipodi="http://sodipodi.sourceforge.net/DTD/sodipodi-0.dtd"
   xmlns="http://www.w3.org/2000/svg"
   xmlns:svg="http://www.w3.org/2000/svg"><sodipodi:namedview
     id="namedview1"
     pagecolor="#ffffff"
     bordercolor="#000000"
     borderopacity="0.25"
     inkscape:showpageshadow="2"
     inkscape:pageopacity="0.0"
     inkscape:pagecheckerboard="0"
     inkscape:deskcolor="#d1d1d1"
     inkscape:document-units="mm"><inkscape:page
       x="-1.121154e-05"
       y="-1.0534872e-05"
       width="77.244896"
       height="100.97135"
       id="page4"
       margin="0"
       bleed="0" /></sodipodi:namedview><defs
     id="defs1"><clipPath
       clipPathUnits="userSpaceOnUse"
       id="clipPath2"><path
         d="M 0,1000 H 1000 V 0 H 0 Z"
         transform="translate(-186.8742,-525.33041)"
         id="path2-5" /></clipPath><clipPath
       clipPathUnits="userSpaceOnUse"
       id="clipPath4"><path
         d="M 0,1000 H 1000 V 0 H 0 Z"
         transform="translate(-247.69621,-554.25891)"
         id="path4-6" /></clipPath><clipPath
       clipPathUnits="userSpaceOnUse"
       id="clipPath6"><path
         d="M 0,1000 H 1000 V 0 H 0 Z"
         transform="translate(-256.70761,-554.25891)"
         id="path6-2" /></clipPath><clipPath
       clipPathUnits="userSpaceOnUse"
       id="clipPath8"><path
         d="M 0,1000 H 1000 V 0 H 0 Z"
         transform="translate(-168.70611,-438.48781)"
         id="path8-9" /></clipPath><clipPath
       clipPathUnits="userSpaceOnUse"
       id="clipPath10"><path
         d="M 0,1000 H 1000 V 0 H 0 Z"
         transform="translate(-263.08341,-470.88361)"
         id="path10-1" /></clipPath><clipPath
       clipPathUnits="userSpaceOnUse"
       id="clipPath12"><path
         d="M 0,1000 H 1000 V 0 H 0 Z"
         transform="translate(-260.98221,-408.91891)"
         id="path12-2" /></clipPath><clipPath
       clipPathUnits="userSpaceOnUse"
       id="clipPath14"><path
         d="M 0,1000 H 1000 V 0 H 0 Z"
         transform="translate(-236.60971,-627.57771)"
         id="path14-7" /></clipPath><clipPath
       clipPathUnits="userSpaceOnUse"
       id="clipPath16"><path
         d="M 0,1000 H 1000 V 0 H 0 Z"
         transform="translate(-252.20251,-563.46272)"
         id="path16-0" /></clipPath></defs><g
     id="layer-MC2-5"
     inkscape:groupmode="layer"
     inkscape:label="HQ"
     transform="matrix(0.26458332,0,0,0.26458333,-50.346852,-125.90333)"><path
       id="path1-9"
       d="M 0,0 C -13.649,-15.088 -21.549,-34.132 -22.567,-54.447 H 54.446 Z"
       style="fill:#55d000;fill-opacity:1;fill-rule:nonzero;stroke:none"
       transform="matrix(1.3333333,0,0,-1.3333333,249.1656,632.8928)"
       clip-path="url(#clipPath2)" /><path
       id="path3-2"
       d="M 0,0 C -20.301,-1.019 -39.35,-8.909 -54.451,-22.554 L 0,-77.006 Z"
       style="fill:#55d000;fill-opacity:1;fill-rule:nonzero;stroke:none"
       transform="matrix(1.3333333,0,0,-1.3333333,330.2616,594.32147)"
       clip-path="url(#clipPath4)" /><path
       id="path5-2"
       d="m 0,0 v -77.006 l 54.453,54.452 C 39.361,-8.908 20.311,-1.018 0,0"
       style="fill:#55d000;fill-opacity:1;fill-rule:nonzero;stroke:none"
       transform="matrix(1.3333333,0,0,-1.3333333,342.2768,594.32147)"
       clip-path="url(#clipPath6)" /><path
       id="path7-8"
       d="m 0,0 h 17.656 c 1.69,0 3.354,-0.164 4.974,-0.486 4.86,-0.964 9.323,-3.339 12.895,-6.922 2.979,-2.97 5.124,-6.562 6.313,-10.49 0.714,-2.356 1.084,-4.833 1.084,-7.368 v -24.956 c 4.906,-2.558 10.029,-4.637 15.308,-6.215 v 31.171 C 58.23,-11.334 69.564,0 83.496,0 c 6.753,0 13.094,-2.631 17.857,-7.408 4.766,-4.752 7.397,-11.098 7.397,-17.858 v -31.177 c 5.291,1.585 10.418,3.667 15.32,6.221 v 24.956 C 124.07,-11.334 135.399,0 149.324,0 h 17.656 c 2.523,7.547 3.997,15.384 4.4,23.384 H -4.399 C -3.997,15.383 -2.523,7.546 0,0"
       style="fill:#01431f;fill-opacity:1;fill-rule:nonzero;stroke:none"
       transform="matrix(1.3333333,0,0,-1.3333333,224.94147,748.68293)"
       clip-path="url(#clipPath8)" /><path
       id="path9-9"
       d="M 0,0 H 77.002 C 75.984,20.308 68.088,39.353 54.445,54.445 Z"
       style="fill:#55d000;fill-opacity:1;fill-rule:nonzero;stroke:none"
       transform="matrix(1.3333333,0,0,-1.3333333,350.77787,705.48853)"
       clip-path="url(#clipPath10)" /><path
       id="path11-7"
       d="m 0,0 c 0,4.849 -3.931,8.78 -8.78,8.78 -4.849,0 -8.78,-3.931 -8.78,-8.78 0,-3.191 1.708,-5.976 4.254,-7.513 L -16.312,-23.34 H -1.248 L -4.252,-7.512 C -1.707,-5.975 0,-3.19 0,0"
       style="fill:#55d000;fill-opacity:1;fill-rule:nonzero;stroke:none"
       transform="matrix(1.3333333,0,0,-1.3333333,347.97627,788.10813)"
       clip-path="url(#clipPath12)" /><path
       id="path13-3"
       d="m 0,0 c 12.149,-12.149 17.167,-28.721 15.078,-44.534 -15.813,-2.089 -32.385,2.929 -44.534,15.078 -12.149,12.149 -17.167,28.721 -15.066,44.522 C -28.721,17.167 -12.149,12.149 0,0"
       style="fill:#55d000;fill-opacity:1;fill-rule:nonzero;stroke:none"
       transform="matrix(1.3333333,0,0,-1.3333333,315.4796,496.56307)"
       clip-path="url(#clipPath14)" /><path
       id="path15-6"
       d="m 0,0 c -25.911,0 -50.293,-10.098 -68.655,-28.435 -18.339,-18.34 -28.441,-42.721 -28.441,-68.649 0,-11.709 2.059,-23.147 6.121,-33.998 1.188,-3.183 2.543,-6.291 4.031,-9.244 4.682,-9.41 10.831,-17.95 18.293,-25.41 6.357,-6.357 13.538,-11.792 21.341,-16.152 8.018,-4.489 16.599,-7.797 25.511,-9.833 14.232,-3.263 29.328,-3.263 43.587,-0.011 8.931,2.051 17.519,5.363 25.517,9.841 7.808,4.363 14.989,9.798 21.347,16.155 7.446,7.446 13.596,15.983 18.28,25.374 1.503,3.007 2.857,6.124 4.026,9.267 4.067,10.864 6.126,22.302 6.126,34.011 0,25.922 -10.098,50.304 -28.432,68.652 C 50.305,-10.098 25.923,0 0,0 m 0,-206.572 c -8.275,0 -16.539,0.933 -24.563,2.773 -10.06,2.299 -19.75,6.033 -28.795,11.097 -8.796,4.914 -16.89,11.04 -24.055,18.204 -8.41,8.411 -15.345,18.041 -20.61,28.624 -1.677,3.328 -3.216,6.855 -4.559,10.454 -4.581,12.239 -6.905,25.139 -6.905,38.336 0,29.237 11.391,56.73 32.074,77.413 20.704,20.676 48.196,32.062 77.413,32.062 29.231,0 56.723,-11.386 77.412,-32.06 l 0.003,-0.003 c 20.674,-20.688 32.06,-48.181 32.06,-77.412 0,-13.196 -2.324,-26.096 -6.908,-38.342 -1.318,-3.546 -2.851,-7.074 -4.55,-10.471 -5.278,-10.583 -12.211,-20.208 -20.603,-28.601 -7.166,-7.165 -15.261,-13.29 -24.061,-18.207 -9.02,-5.05 -18.712,-8.788 -28.8,-11.106 -8.037,-1.832 -16.294,-2.761 -24.553,-2.761"
       style="fill:#01431f;fill-opacity:1;fill-rule:nonzero;stroke:none"
       transform="matrix(1.3333333,0,0,-1.3333333,336.27,582.04973)"
       clip-path="url(#clipPath16)" /></g></svg>
